<?xml version="1.0" encoding="utf-8"?>
<!-- Generator: Adobe Illustrator 25.0.0, SVG Export Plug-In . SVG Version: 6.00 Build 0)  -->
<svg version="1.1" id="圖層_1" xmlns="http://www.w3.org/2000/svg" xmlns:xlink="http://www.w3.org/1999/xlink" x="0px" y="0px"
	 viewBox="0 0 300 33" style="enable-background:new 0 0 300 33;" xml:space="preserve">
<style type="text/css">
	.st0{fill:#FFFFFF;}
</style>
<g>
	<polygon class="st0" points="55.17,7.56 42.02,7.67 41.41,11.22 46.11,11.18 43.04,25.95 46.78,25.92 49.85,11.15 54.4,11.11 	"/>
	<path class="st0" d="M65.7,10.71c0,0-4.48-2.83-7.13,4.11l0.76-4.22l-3.19,0.03l-2.98,15.24l3.26-0.02l1.86-8.15
		c0,0,1.7-5.27,6.26-3.15L65.7,10.71z"/>
	<path class="st0" d="M73.66,9.77c0,0-4.14,0.35-6.59,2.68l-0.45,3.59c0,0,2.61-2.81,5.24-2.83c2.62-0.02,4.32,2.36,0.1,3.74
		c-4.22,1.39-7.64,2.13-7.6,6.35c0.03,4.22,6.49,3.85,8.61-0.15l-0.38,2.56l3.18-0.03L78,14.75C78,14.75,79.32,9.72,73.66,9.77z
		 M69.55,23.66c-0.88,0.01-1.52-0.55-1.53-1.42c0-0.88,0.94-1.76,1.9-2.25c0.95-0.48,4.05-1.54,4.05-1.54
		C74,22.11,70.43,23.65,69.55,23.66z"/>
	<path class="st0" d="M90.31,9.71c-4.47,0.04-6.41,4.99-6.41,4.99l0.84-4.31l-3.43,0.03l-2.82,15.4l3.42-0.03l1.92-9.09
		c0,0,0.94-3.28,3.88-3.3c2.95-0.02,2.1,2.93,1.95,3.89c-0.15,0.96-1.77,8.38-1.77,8.38l3.58-0.03l2.22-11.49
		C93.69,14.15,94.77,9.67,90.31,9.71z"/>
	<path class="st0" d="M101.71,9.7c-3.27,0.02-6.35,2.83-6.33,6.03c0.02,3.18,3.6,3.63,4.16,3.79c0.57,0.15,1.76,0.54,1.78,1.73
		c0.01,1.2-3,4.17-6.86-0.26l-0.52,3.52c0,0,1.36,1.65,4.07,1.63c2.72-0.02,6.61-2.13,6.57-5.71c-0.03-3.58-4.41-3.7-5.54-4.65
		c-1.12-0.95,0.45-2.87,2.37-2.89c1.9-0.02,3.59,2.04,3.59,2.04l0.77-3.43C105.78,11.5,104.96,9.67,101.71,9.7z"/>
	<path class="st0" d="M114.28,9.52c-3.35,0.03-8.57,3.57-8.51,10.1c0.05,6.53,6.35,8.95,10.77,3.58l0.3-2.64
		c0,0-1.97,2.73-4.84,2.75c-2.86,0.02-3.13-3.4-2.98-4.52c0.15-1.12,1.15-5.66,4.89-5.69c3.74-0.03,4.16,2.51,4.16,2.51l0.77-3.83
		C118.84,11.8,117.63,9.49,114.28,9.52z"/>
	<path class="st0" d="M127.11,9.57c-4.14,0.03-8.64,4.93-8.59,10.51c0.04,5.58,6.48,8.52,11.73,3.17l0.3-2.55
		c0,0-1.4,2.64-5.31,2.66c-3.9,0.03-3.45-4.11-3.45-4.11l9.63-0.07c0,0,1.09-3.28,0.76-5.27C131.83,11.93,131.25,9.54,127.11,9.57z
		 M129.79,16.33l-7.48,0.06c0,0,1.09-3.43,4.59-3.46C130.4,12.9,129.79,16.33,129.79,16.33z"/>
	<path class="st0" d="M144.39,9.83c-4.46,0.03-6.41,5-6.41,5l0.84-4.31l-3.43,0.03l-2.82,15.4l3.42-0.03l1.92-9.1
		c0,0,0.92-3.27,3.88-3.29c2.94-0.03,2.09,2.93,1.94,3.88c-0.15,0.96-1.77,8.38-1.77,8.38l3.59-0.02l2.22-11.49
		C147.78,14.27,148.85,9.8,144.39,9.83z"/>
	<path class="st0" d="M160.34,13.65c0,0-0.21-3.88-3.98-3.85c-3.77,0.03-7.67,5.02-7.62,10.4c0.05,5.37,5.45,9.34,10,2.19
		l-0.81,3.35l3.4-0.02l3.91-19.03l-3.46,0.03L160.34,13.65z M159.71,16.35c0.03,4.41-3.18,6.77-4.74,6.78
		c-1.55,0.01-2.76-1.29-2.78-3.39c-0.01-2.08,1.45-6.28,4.68-6.31C160.09,13.41,159.71,16.35,159.71,16.35z"/>
	<path class="st0" d="M13.97,14.31l-2.6,12.99h6.75l2.61-12.99h4.42l1.35-6.39L8.1,7.91c4.38-4.96,10.88-7.39,16.26-5.61
		c3.24,1.08,5.49,3.49,6.56,6.57h3.05c-0.08-0.2-0.16-0.4-0.26-0.6c-0.2-0.43-0.42-0.84-0.66-1.23c-0.08-0.13-0.16-0.25-0.24-0.37
		c-0.18-0.27-0.36-0.53-0.55-0.79c-0.09-0.12-0.19-0.25-0.29-0.37c-0.23-0.28-0.47-0.54-0.72-0.8c-0.07-0.07-0.13-0.15-0.2-0.21
		c-0.32-0.31-0.65-0.6-0.99-0.88c-0.11-0.09-0.23-0.17-0.35-0.26c-0.25-0.19-0.51-0.37-0.77-0.54c-0.08-0.05-0.15-0.11-0.24-0.16
		c-0.08-0.05-0.17-0.09-0.25-0.14c-0.13-0.07-0.25-0.15-0.38-0.22c-0.17-0.09-0.34-0.18-0.52-0.27c-0.08-0.04-0.16-0.08-0.24-0.12
		c-0.08-0.04-0.16-0.07-0.24-0.11c-0.21-0.09-0.43-0.18-0.64-0.27c-0.12-0.05-0.24-0.1-0.37-0.15c-0.04-0.02-0.09-0.03-0.13-0.05
		c-0.2-0.07-0.41-0.13-0.62-0.2c-0.12-0.04-0.25-0.08-0.37-0.12c-0.1-0.03-0.21-0.05-0.31-0.08c-0.12-0.03-0.25-0.06-0.37-0.09
		c-0.08-0.02-0.16-0.04-0.24-0.06c-0.06-0.01-0.13-0.03-0.19-0.05c-0.23-0.05-0.46-0.08-0.69-0.12c-0.1-0.02-0.2-0.04-0.3-0.05
		c-0.05-0.01-0.11-0.02-0.16-0.02c-0.11-0.01-0.22-0.02-0.32-0.03c-0.28-0.03-0.57-0.06-0.86-0.08c-0.05,0-0.1-0.01-0.14-0.01
		c-0.09,0-0.17,0-0.26-0.01c-0.02,0-0.03,0-0.05,0c-0.25-0.01-0.5-0.02-0.75-0.02c-0.15,0-0.29,0.01-0.44,0.01
		c-0.11,0-0.22,0-0.33,0.01c-0.15,0.01-0.3,0.02-0.45,0.03c-0.17,0.01-0.35,0.03-0.53,0.04c-0.17,0.02-0.33,0.03-0.5,0.05
		c-0.09,0.01-0.17,0.02-0.26,0.04c-0.08,0.01-0.16,0.02-0.24,0.03l-0.03,0.01c-0.34,0.05-0.68,0.11-1.02,0.18
		c-0.14,0.03-0.28,0.05-0.41,0.09c-0.5,0.11-1,0.24-1.5,0.39c-0.08,0.02-0.15,0.05-0.23,0.08c-0.44,0.14-0.87,0.29-1.31,0.46
		c-0.14,0.05-0.28,0.11-0.42,0.17c-0.5,0.21-1.01,0.43-1.5,0.68c-5.14,2.6-8.8,6.96-10.33,11.64h0H13.97z"/>
	<path class="st0" d="M28.05,11.11l-1.36,6.4h4.3c-0.29,1.03-0.68,2.06-1.18,3.09c-3.81,7.84-12.44,12.36-19.26,10.1
		c-5.61-1.86-8.25-7.75-6.89-14.13l0,0c0,0,0,0,0,0H0.23c-0.48,2.78-0.21,5.6,0.97,8.16c3.5,7.64,13.61,10.15,22.59,5.61
		c0.99-0.5,1.92-1.06,2.79-1.68c6.11-4.33,9.31-11.33,8.06-17.54H28.05z"/>
	<path class="st0" d="M172.25,7.1c-0.51-0.28-1.03-0.42-1.58-0.42c-0.55,0-1.08,0.14-1.59,0.42c-0.51,0.27-0.9,0.67-1.19,1.18
		c-0.29,0.51-0.43,1.04-0.43,1.61c0,0.56,0.14,1.09,0.42,1.6c0.28,0.51,0.68,0.9,1.19,1.19c0.5,0.28,1.04,0.43,1.6,0.43
		c0.56,0,1.09-0.14,1.6-0.43c0.51-0.28,0.9-0.68,1.19-1.19c0.28-0.5,0.42-1.03,0.42-1.6c0-0.56-0.14-1.09-0.43-1.61
		C173.16,7.77,172.75,7.37,172.25,7.1z M172.91,11.18c-0.23,0.41-0.55,0.72-0.95,0.95c-0.41,0.23-0.83,0.34-1.28,0.34
		c-0.45,0-0.87-0.11-1.28-0.34c-0.41-0.23-0.73-0.54-0.95-0.95c-0.23-0.41-0.34-0.83-0.34-1.28c0-0.45,0.12-0.88,0.35-1.3
		c0.23-0.41,0.56-0.73,0.96-0.95c0.41-0.22,0.83-0.33,1.27-0.33c0.44,0,0.87,0.11,1.27,0.33c0.4,0.22,0.73,0.54,0.96,0.95
		c0.23,0.41,0.35,0.85,0.35,1.3C173.25,10.34,173.14,10.77,172.91,11.18z"/>
	<path class="st0" d="M171.53,10.51c-0.1-0.13-0.17-0.22-0.23-0.26c-0.06-0.04-0.14-0.09-0.24-0.13c0.29-0.04,0.51-0.15,0.67-0.32
		c0.16-0.18,0.24-0.38,0.24-0.63c0-0.18-0.05-0.34-0.13-0.48c-0.09-0.15-0.2-0.26-0.32-0.32c-0.13-0.07-0.3-0.12-0.53-0.14
		c-0.08-0.01-0.44-0.01-1.09-0.01h-0.69v3.39h0.69v-1.4h0.18c0.19,0,0.35,0.05,0.48,0.14c0.12,0.1,0.28,0.33,0.47,0.7l0.28,0.55
		h0.86l-0.4-0.69C171.64,10.68,171.56,10.54,171.53,10.51z M170.93,9.63c-0.09,0.03-0.35,0.04-0.74,0.04h-0.28V8.75h0.28
		c0.39,0,0.64,0.02,0.74,0.05c0.1,0.03,0.18,0.09,0.23,0.16c0.06,0.07,0.08,0.16,0.08,0.25c0,0.1-0.03,0.19-0.08,0.26
		C171.1,9.54,171.02,9.6,170.93,9.63z"/>
	<path class="st0" d="M206.7,26.22c0,0.45-0.37,0.68-1.09,0.68c-0.88,0-2.01-0.08-3.4-0.23l0.56,3.02h3.62
		c1.11,0,1.86-0.24,2.28-0.71c0.45-0.43,0.68-1.2,0.68-2.31V2.97h-2.64V26.22z"/>
	<rect x="202.2" y="4.83" class="st0" width="2.53" height="18.72"/>
	<path class="st0" d="M193.1,2.97h-1.32c-2.08,2.35-4.6,4.32-7.56,5.92l1.21,2.66c0.39-0.26,0.79-0.52,1.21-0.8v6.92
		c0,1.58-0.15,3.28-0.45,5.12c-0.36,1.8-1.02,3.51-1.97,5.15l1.97,1.86c1.03-2.07,1.76-4.16,2.19-6.27
		c0.21-1.17,0.36-2.31,0.45-3.43h10.65v-9.73h-4.22c-0.41-1.12-0.84-2.12-1.29-2.99l-2.65,0.36c0.51,0.83,0.96,1.7,1.35,2.63h-5.48
		c2.44-1.68,4.48-3.36,6.13-5.06c2.59,1.76,5.07,3.84,7.44,6.24l1.09-2.9c-2.47-2.07-5.02-3.97-7.67-5.68H193.1z M188.94,12.58h8.23
		v1.6h-8.23V12.58z M188.94,16.16h8.23v1.71h-8.23V16.16z"/>
	<path class="st0" d="M188.82,30.04h2.41v-1.39h6.36v1.39h2.41v-8.34h-11.18V30.04z M191.24,23.91h6.36v2.63h-6.36V23.91z"/>
	<path class="st0" d="M236.82,26.37c-0.2,0.28-0.52,0.41-0.95,0.41h-3.74c-0.65,0-0.98-0.3-0.98-0.92v-5.44h5.93V4.03h-20.09v16.39
		h4.94c-0.24,1.77-0.91,3.17-2.02,4.17c-1.25,1.1-3.21,2.07-5.88,2.9l1.52,2.63c3.2-1.28,5.45-2.65,6.75-4.11
		c1.31-1.44,2.08-3.3,2.3-5.59h3.91v6.24c0,0.81,0.24,1.46,0.73,1.95c0.47,0.47,1.1,0.71,1.91,0.71h5.06c1.2,0,2.02-0.27,2.47-0.8
		c0.52-0.52,0.91-2.25,1.15-5.21l-2.53-0.8C237.21,24.81,237.05,26.09,236.82,26.37z M219.51,6.34h15.03v2.19h-15.03V6.34z
		 M219.51,10.84h15.03v2.43h-15.03V10.84z M219.51,18.11v-2.54h15.03v2.54H219.51z"/>
	<path class="st0" d="M250.88,11.07l-0.56-2.42c-2.15,1.04-4.23,1.81-6.24,2.31l0.98,2.54C247.36,12.79,249.3,11.98,250.88,11.07z"
		/>
	<path class="st0" d="M250.99,5.75c-1.37-0.89-2.87-1.66-4.5-2.31l-1.32,2.07c1.46,0.65,2.89,1.54,4.27,2.66L250.99,5.75z"/>
	<path class="st0" d="M266.9,25.63V13.62c0.28,0.1,0.57,0.22,0.87,0.36l1.32-2.1c-2.7-1.03-5.64-1.92-8.83-2.69
		c0.45-0.59,0.89-1.27,1.32-2.04h3.94c-0.79,0.61-1.5,1.07-2.14,1.39l1.66,1.51c1.38-0.93,2.6-1.97,3.63-3.14V5.07h-11.05
		c0.28-0.39,0.59-0.86,0.93-1.39l-2.19-0.92c-0.62,1.11-1.35,2.04-2.19,2.81c-0.89,0.79-2.11,1.58-3.62,2.37l1.85,1.75
		c1.58-0.95,2.74-1.79,3.49-2.54h2.98c-0.52,0.81-1.09,1.47-1.72,1.98c-1.35,1.12-3.26,2-5.73,2.63l1.21,1.63h-5.26v12.25h5.74
		c-2.36,0.93-5.12,1.62-8.27,2.07l1.09,2.42c2.96-0.61,5.92-1.57,8.88-2.87l-1.32-1.62h7.19l-0.93,1.98
		c3.11,0.57,6.08,1.45,8.91,2.63l0.87-2.42c-2.81-0.97-5.54-1.7-8.2-2.19H266.9z M258.75,10.81c2.55,0.67,5.07,1.53,7.56,2.58
		h-12.06C256.08,12.67,257.58,11.81,258.75,10.81z M249.89,15.33h14.47v1.39h-14.47V15.33z M249.89,18.59h14.47v1.51h-14.47V18.59z
		 M249.89,23.67v-1.75h14.47v1.75H249.89z"/>
	<path class="st0" d="M279.26,2.88l-2.65,0.33c0.45,0.91,0.87,1.87,1.27,2.9h-3.99v2.43h10.42V6.1h-3.88
		C280.06,4.9,279.67,3.83,279.26,2.88z"/>
	<rect x="274.77" y="14.77" class="st0" width="8.68" height="2.31"/>
	<path class="st0" d="M297.39,21.46c-0.1,3.31-0.28,4.97-0.57,4.97c-0.13,0-0.23-0.56-0.31-1.69c-0.15-1.77-0.22-3.82-0.22-6.15
		c0-4.3,0.06-8.97,0.2-13.99h-11.86v2.78h2.53v7.75h-2.73v2.63h2.73v12.28h2.65V17.76h2.86v-2.63h-2.86V7.38h3.73v11.21
		c0,3.05,0.17,5.43,0.51,7.13c0.26,1.46,0.7,2.55,1.29,3.28c0.5,0.61,1.08,0.92,1.72,0.92c0.59,0,1.13-0.35,1.6-1.04
		c0.52-0.73,0.98-2.66,1.35-5.8L297.39,21.46z"/>
	<path class="st0" d="M274.77,29.92h2.53v-1.98h3.4v1.51h2.53V19.5h-8.46V29.92z M277.29,21.93h3.4v3.58h-3.4V21.93z"/>
	<rect x="274.77" y="10.48" class="st0" width="8.57" height="2.42"/>
</g>
</svg>
